<svg width="27" height="30" viewBox="0 0 27 30" fill="none" xmlns="http://www.w3.org/2000/svg">
<path d="M7.50722 12.4756H4.27138C3.975 12.4756 3.73511 12.7198 3.73511 13.0216V16.3137C3.73511 16.6155 3.975 16.8597 4.27138 16.8597H7.50722C7.8036 16.8597 8.04349 16.6155 8.04349 16.3137V13.0216C8.04349 12.7202 7.80325 12.4756 7.50722 12.4756ZM6.97096 15.7681H4.80765V13.5679H6.97096V15.7681Z" fill="white"/>
<path d="M15.0544 12.4756H11.8175C11.5211 12.4756 11.2812 12.7198 11.2812 13.0216V16.3137C11.2812 16.6155 11.5211 16.8597 11.8175 16.8597H15.0544C15.3508 16.8597 15.5907 16.6155 15.5907 16.3137V13.0216C15.5907 12.7202 15.3508 12.4756 15.0544 12.4756ZM14.5182 15.7681H12.3538V13.5679H14.5182V15.7681Z" fill="white"/>
<path d="M7.50722 19.978H4.27138C3.975 19.978 3.73511 20.2226 3.73511 20.524V23.8183C3.73511 24.1201 3.975 24.3643 4.27138 24.3643H7.50722C7.8036 24.3643 8.04349 24.1201 8.04349 23.8183V20.524C8.04349 20.2226 7.80325 19.978 7.50722 19.978ZM6.97096 23.2724H4.80765V21.07H6.97096V23.2724Z" fill="white"/>
<path d="M15.0544 19.978H11.8175C11.5211 19.978 11.2812 20.2226 11.2812 20.524V23.8183C11.2812 24.1201 11.5211 24.3643 11.8175 24.3643H15.0544C15.3508 24.3643 15.5907 24.1201 15.5907 23.8183V20.524C15.5907 20.2226 15.3508 19.978 15.0544 19.978ZM14.5182 23.2724H12.3538V21.07H14.5182V23.2724Z" fill="white"/>
<path d="M22.3666 19.978H19.1322C18.8358 19.978 18.5959 20.2226 18.5959 20.524V23.8183C18.5959 24.1201 18.8358 24.3643 19.1322 24.3643H22.3666C22.663 24.3643 22.9029 24.1201 22.9029 23.8183V20.524C22.9029 20.2226 22.6626 19.978 22.3666 19.978ZM21.8304 23.2724H19.6685V21.07H21.8304V23.2724Z" fill="white"/>
<path d="M26.3051 2.67268H23.0478V2.03972C23.0478 0.915036 22.1494 0 21.0454 0C19.9407 0 19.0419 0.915036 19.0419 2.03972V2.67268H15.4196V2.03972C15.4196 0.915036 14.5211 0 13.4171 0C12.3117 0 11.4125 0.915036 11.4125 2.03972V2.67268H7.79129V2.03972C7.79129 0.915036 6.89322 0 5.78886 0C4.68343 0 3.78428 0.915036 3.78428 2.03972V2.67268H0.53627C0.239891 2.67268 0 2.9169 0 3.21864V29.454C0 29.7554 0.239891 30 0.53627 30H26.3058C26.6022 30 26.8421 29.7554 26.8421 29.454V3.21864C26.8414 2.9169 26.6015 2.67268 26.3051 2.67268ZM20.1141 2.03972C20.1141 1.51669 20.5316 1.09193 21.045 1.09193C21.5577 1.09193 21.9749 1.51705 21.9749 2.03972V4.8336C21.9749 5.35627 21.5577 5.7814 21.045 5.7814C20.5316 5.7814 20.1141 5.35627 20.1141 4.8336V2.03972ZM13.4168 1.09156C13.9294 1.09156 14.3467 1.51669 14.3467 2.03936V4.83324C14.3467 5.35591 13.9294 5.78103 13.4168 5.78103C12.9027 5.78103 12.4847 5.35591 12.4847 4.83324V3.27833C12.4869 3.25831 12.4908 3.23902 12.4908 3.21828C12.4908 3.19753 12.4869 3.17824 12.4847 3.15822V2.03936C12.4847 1.51669 12.903 1.09156 13.4168 1.09156ZM4.85646 2.03972C4.85646 1.51669 5.27475 1.09193 5.7885 1.09193C6.30117 1.09193 6.71839 1.51705 6.71839 2.03972V4.8336C6.71839 5.35627 6.30117 5.7814 5.7885 5.7814C5.27439 5.7814 4.85646 5.35627 4.85646 4.8336V2.03972ZM25.7689 28.9077H1.07183V3.76424H3.78356V4.83324C3.78356 5.95792 4.68307 6.87296 5.78814 6.87296C6.89214 6.87296 7.79057 5.95792 7.79057 4.83324V3.76424H11.4118V4.83324C11.4118 5.95792 12.3113 6.87296 13.4164 6.87296C14.5204 6.87296 15.4188 5.95792 15.4188 4.83324V3.76424H19.0412V4.83324C19.0412 5.95792 19.94 6.87296 21.0447 6.87296C22.1487 6.87296 23.0471 5.95792 23.0471 4.83324V3.76424H25.7681V28.9077H25.7689Z" fill="white"/>
<path d="M22.9599 10.8975L20.2235 14.3313L19.082 13.2219C18.8678 13.0137 18.5285 13.0217 18.3237 13.2397C18.1192 13.4581 18.127 13.8035 18.3412 14.0117L19.9032 15.5298C20.0033 15.627 20.1359 15.6809 20.2735 15.6809C20.285 15.6809 20.2961 15.6805 20.3075 15.6798C20.457 15.6703 20.5957 15.5972 20.6901 15.4789L23.7929 11.5858C23.9795 11.3518 23.9441 11.0078 23.7143 10.8178C23.4844 10.6274 23.1465 10.6635 22.9599 10.8975Z" fill="white"/>
</svg>
