<svg width="26" height="26" viewBox="0 0 26 26" fill="none" xmlns="http://www.w3.org/2000/svg">
<path d="M25.4549 9.70719L17.1862 8.51483L13.4887 1.07917C13.3972 0.894616 13.208 0.777832 13.0002 0.777832C12.7925 0.777832 12.6033 0.894616 12.5118 1.07917L8.81466 8.51483L0.545896 9.70719C0.341066 9.73674 0.170374 9.87948 0.106092 10.0752C0.0418098 10.2709 0.0955596 10.4861 0.244098 10.6296L6.22667 16.4173L4.81465 24.59C4.77942 24.793 4.86368 24.9981 5.03147 25.1192C5.19962 25.2399 5.42188 25.2558 5.60528 25.1603L12.9999 21.3013L20.3956 25.1603C20.4755 25.2017 20.5623 25.2223 20.6491 25.2223C20.762 25.2223 20.8742 25.1873 20.9694 25.1192C21.1372 24.9981 21.2211 24.793 21.1862 24.59L19.7727 16.4173L25.756 10.6296C25.9046 10.4861 25.9579 10.2709 25.894 10.0752C25.8305 9.87948 25.6598 9.73674 25.4549 9.70719ZM18.8081 15.8413C18.6796 15.9656 18.6211 16.1444 18.6512 16.32L19.9263 23.6929L13.2541 20.2117C13.095 20.1292 12.9058 20.1292 12.7471 20.2117L6.07595 23.6929L7.34961 16.32C7.37975 16.1444 7.32128 15.9656 7.19272 15.8413L1.79594 10.6202L9.25555 9.54463C9.43278 9.51904 9.5864 9.40838 9.66557 9.24906L13.001 2.54114L16.3367 9.24906C16.4159 9.40838 16.5695 9.51904 16.7467 9.54463L24.2064 10.6202L18.8081 15.8413Z" fill="#42196D"/>
</svg>
