<svg width="32" height="30" viewBox="0 0 32 30" fill="none" xmlns="http://www.w3.org/2000/svg">
<path d="M15.2994 30C6.86333 30 0 23.2715 0 15.0008C0 6.72926 6.86333 0 15.2994 0C18.6535 0 21.8569 1.06079 24.5627 3.0681C25.0895 3.45852 25.1996 4.20203 24.8088 4.72842C24.4188 5.25444 23.6752 5.36566 23.1485 4.97486C20.8547 3.27341 18.1405 2.37411 15.2994 2.37411C8.17247 2.37411 2.37411 8.03839 2.37411 15.0004C2.37411 21.962 8.17247 27.6259 15.2994 27.6259C22.4267 27.6259 28.225 21.962 28.225 15.0004C28.225 14.0253 28.1165 13.0772 27.9028 12.1821C27.7508 11.5445 28.1443 10.9042 28.7819 10.7519C29.4172 10.5995 30.0594 10.993 30.2122 11.631C30.4689 12.7066 30.5991 13.8402 30.5991 15.0008C30.5988 23.2715 23.7358 30 15.2994 30Z" fill="#FAD264"/>
<path d="M14.9996 22.1924C14.6854 22.1924 14.3833 22.0679 14.1601 21.845L6.05127 13.7369C5.58773 13.2734 5.58773 12.5219 6.05127 12.0583C6.51482 11.5948 7.26633 11.5944 7.72988 12.0583L14.9505 19.2782L29.1259 3.40023C29.5627 2.91116 30.3135 2.86888 30.8018 3.30539C31.2909 3.74189 31.3335 4.49225 30.897 4.98132L15.8852 21.7959C15.6677 22.0397 15.3596 22.1829 15.0335 22.192C15.0217 22.1924 15.0107 22.1924 14.9996 22.1924Z" fill="#FAD264"/>
</svg>
