<svg width="30" height="30" viewBox="0 0 30 30" fill="none" xmlns="http://www.w3.org/2000/svg">
<path d="M19.6169 11.1222L13.6563 17.799L10.6315 14.7745C10.4245 14.5676 10.0894 14.5676 9.88249 14.7745C9.67556 14.9815 9.67556 15.3166 9.88249 15.5235L13.3035 18.9445C13.4027 19.0441 13.5376 19.0995 13.6782 19.0995C13.6831 19.0995 13.6881 19.0995 13.693 19.0992C13.8388 19.0949 13.9762 19.0314 14.0733 18.9226L20.4076 11.8277C20.6025 11.6095 20.5834 11.2748 20.3652 11.0798C20.1463 10.8853 19.8122 10.9043 19.6169 11.1222Z" fill="#42196D"/>
<path d="M29.7316 14.9991C29.7415 14.9589 29.7482 14.9172 29.7482 14.8738C29.7482 13.462 28.2838 12.7324 26.9914 12.0884C26.074 11.6314 25.1259 11.1586 24.8734 10.5629C24.6163 9.9548 24.9793 8.96395 25.3296 8.00523C25.8184 6.66937 26.3233 5.28832 25.3914 4.35715C24.4776 3.44327 23.1414 3.7526 21.8486 4.05311C20.9439 4.26286 20.0078 4.47932 19.3845 4.2159C18.7761 3.95847 18.2704 3.16042 17.7813 2.3878C17.0719 1.26876 16.2686 0 14.8741 0C13.4772 0 12.689 1.2963 11.9941 2.44041C11.5117 3.23458 11.0127 4.05523 10.405 4.3123C9.78389 4.57537 8.83788 4.33702 7.9233 4.10714C6.62029 3.78015 5.27314 3.44045 4.35714 4.3575C3.43162 5.28267 3.88008 6.67079 4.31442 8.0137C4.62446 8.97171 4.94474 9.96257 4.68555 10.5759C4.43271 11.1741 3.52661 11.6427 2.64981 12.0961C1.40789 12.7381 0 13.4659 0 14.8745C0 14.9183 0.00706251 14.9603 0.0169499 15.0009C0.00706251 15.0411 0.000353263 15.0828 0.000353263 15.1262C0.000353263 16.5348 1.40824 17.2626 2.65052 17.9046C3.52661 18.3576 4.43307 18.8262 4.6859 19.4244C4.94509 20.0378 4.62481 21.0286 4.31477 21.987C3.88079 23.3296 3.43197 24.7173 4.35714 25.6429C5.27384 26.5599 6.621 26.2213 7.92365 25.8932C8.83859 25.6637 9.78495 25.426 10.4057 25.6888C11.0131 25.9455 11.5121 26.7661 11.9944 27.5599C12.6897 28.7037 13.4775 30 14.8745 30C16.2689 30 17.0726 28.7312 17.7817 27.6122C18.2711 26.8396 18.7768 26.0415 19.3842 25.7841C20.0099 25.52 20.9442 25.7368 21.8486 25.9469C23.1406 26.2467 24.4776 26.5574 25.3907 25.6432C26.3237 24.7117 25.8184 23.3303 25.3296 21.9948C24.979 21.0361 24.6163 20.0452 24.8731 19.4378C25.1259 18.8418 26.074 18.3689 26.9914 17.912C28.2835 17.2683 29.7482 16.5384 29.7482 15.1266C29.7486 15.0817 29.7415 15.0397 29.7316 14.9991ZM26.5193 16.9625C25.4299 17.5052 24.3035 18.0667 23.8977 19.024C23.4786 20.0162 23.914 21.2066 24.3349 22.3574C24.7262 23.4277 25.0962 24.4394 24.6418 24.8928C24.1442 25.3914 23.1449 25.1594 22.088 24.9144C21.0187 24.6665 19.9131 24.4098 18.9717 24.8077C18.0589 25.194 17.4632 26.1348 16.8869 27.0444C16.2693 28.019 15.6859 28.9396 14.8745 28.9396C14.0732 28.9396 13.5033 28.0017 12.8995 27.0087C12.3299 26.0712 11.7405 25.1015 10.8182 24.712C9.87005 24.3102 8.7496 24.592 7.66482 24.8649C6.60193 25.1315 5.59801 25.3851 5.10611 24.8928C4.63893 24.426 4.97087 23.3991 5.32222 22.3119C5.69194 21.1695 6.07366 19.988 5.66122 19.0109C5.25937 18.0603 4.18023 17.5024 3.13676 16.9625C2.06858 16.4105 1.05936 15.889 1.05936 15.1252C1.05936 15.0814 1.0523 15.0394 1.04241 14.9984C1.0523 14.9582 1.05901 14.9165 1.05901 14.8731C1.05901 14.1093 2.06787 13.5877 3.13606 13.0358C4.17988 12.4962 5.25937 11.9383 5.66086 10.987C6.07331 10.0102 5.69158 8.82905 5.32187 7.68636C4.97051 6.5991 4.63823 5.57223 5.10611 5.10505C5.59695 4.61316 6.60087 4.86599 7.66446 5.1333C8.74854 5.40556 9.86899 5.68841 10.8175 5.28656C11.7398 4.89671 12.3292 3.92705 12.8995 2.98951C13.5029 1.99619 14.0729 1.0583 14.8741 1.0583C15.6856 1.0583 16.2689 1.97888 16.8862 2.95385C17.4628 3.86348 18.0585 4.8042 18.9717 5.19086C19.9131 5.58883 21.0187 5.33211 22.088 5.08387C23.1449 4.8388 24.1439 4.6068 24.6421 5.10576C25.0959 5.55881 24.7258 6.57015 24.3345 7.64081C23.9136 8.79198 23.4782 9.98234 23.8977 10.975C24.3028 11.9319 25.4296 12.4934 26.5189 13.0361C27.6348 13.5919 28.6889 14.1174 28.6889 14.8731C28.6889 14.9168 28.6959 14.9589 28.7058 14.9995C28.6959 15.0397 28.6892 15.0814 28.6892 15.1248C28.6892 15.8816 27.6352 16.4067 26.5193 16.9625Z" fill="#42196D"/>
</svg>
