<svg xmlns="http://www.w3.org/2000/svg">
  <symbol viewBox="0 0 24 36" id="mouse">
    <path id="icon/hardware/mouse_24px" fill-rule="evenodd" clip-rule="evenodd" d="M12 1.03516C16.4 1.03516 19.96 4.57516 20 8.96516V14.9652C20 19.3852 16.42 22.9652 12 22.9652C7.58 22.9652 4 19.3852 4 14.9652V8.96516C4.04 4.57516 7.6 1.03516 12 1.03516ZM13 8.96516H18C17.96 6.02516 15.81 3.59516 13 3.12516V8.96516ZM11 3.12516V8.96516H6C6.04 6.02516 8.19 3.59516 11 3.12516ZM12 20.9652C15.31 20.9652 18 18.2752 18 14.9652V10.9652H6V14.9652C6 18.2752 8.69 20.9652 12 20.9652Z"/>
  </symbol>
  <symbol viewBox="0 0 24 36" id="mouse-arr">
    <path id="icon/hardware/keyboard_capslock_24px" d="M12 29.9555L16.59 25L18 26.5223L12 33L6 26.5223L7.41 25L12 29.9555Z"/>
  </symbol>
</svg>